# xmcd CD database file
#
# Track frame offsets:
#	150
#	21734
#	44202
#	53580
#	75381
#	93229
#	107068
#	130633
#	155759
#	175422
#	187450
#	199368
#	216560
#	231333
#	251330
#
# Disc length: 3699 seconds
#
# Revision: 0
# Processed by: cddbd v1.5.2PL0 Copyright (c) Steve Scherf et al.
# Submitted via: CDex 1.51
#
DISCID=e20e710f
DTITLE=Various Artist - Jazz Ballads CD1
DYEAR=2011
DGENRE=Jazz
TTITLE0=Joanna Eden Trio - When I Fall In Love
TTITLE1=Katrine Madsen - And I Love Her
TTITLE2=Hilary Kole - You For Me
TTITLE3=Bobbie Eakes - I Can't Stop Loving You
TTITLE4=Carol Welsman - Nosotros
TTITLE5=Maureen Mcgovern - Will You Still Love Me Tomorrow?
TTITLE6=Mette Juul - Embraceable You
TTITLE7=Pamela Luss - Send In The Clowns
TTITLE8=Bobbie Eakes - Don't Let Me Be Lonely Tonight
TTITLE9=Pamela Luss - Ain't No Sunshine
TTITLE10=Callie Cardamon - Ain't Misbehavin'
TTITLE11=Jeannie Tanner - Mr. Midnight
TTITLE12=Callie Cardamon - Dream A Little Dream
TTITLE13=Tara Norveil - What A Wonderful World
TTITLE14=Tina May - Lucky To Be Me
EXTD=YEAR: 2011
EXTT0=
EXTT1=
EXTT2=
EXTT3=
EXTT4=
EXTT5=
EXTT6=
EXTT7=
EXTT8=
EXTT9=
EXTT10=
EXTT11=
EXTT12=
EXTT13=
EXTT14=
PLAYORDER=
